PathFileType	4	(X/Y/Z)	29_1_43_p0_0-575.trc
DataRate	CameraRate	NumFrames	NumMarkers	Units	OrigDataRate	OrigDataStartFrame	OrigNumFrames
59.0	59.0	6	27	m	59.0	72	576
Frame#	Time	RHip			RKnee			RAnkle			RBigToe			RSmallToe			RHeel			LHip			LKnee			LAnkle			LBigToe			LSmallToe			LHeel			Neck			Head			Nose			RShoulder			RElbow			RWrist			RThumb			RIndex			RPinky			LShoulder			LElbow			LWrist			LThumb			LIndex			LPinky			
		X1	Y1	Z1	X2	Y2	Z2	X3	Y3	Z3	X4	Y4	Z4	X5	Y5	Z5	X6	Y6	Z6	X7	Y7	Z7	X8	Y8	Z8	X9	Y9	Z9	X10	Y10	Z10	X11	Y11	Z11	X12	Y12	Z12	X13	Y13	Z13	X14	Y14	Z14	X15	Y15	Z15	X16	Y16	Z16	X17	Y17	Z17	X18	Y18	Z18	X19	Y19	Z19	X20	Y20	Z20	X21	Y21	Z21	X22	Y22	Z22	X23	Y23	Z23	X24	Y24	Z24	X25	Y25	Z25	X26	Y26	Z26	X27	Y27	Z27	
72	1.2203389830508475	0.36117258624904924	0.5647421900110152	0.9380960983913148	0.31620641558460466	0.6753025724966707	1.3397459735154587	0.2944423831019836	0.768281616577427	1.7311232450850138	0.277870892555791	0.6234408455174181	1.7731007883289513	0.32464649748461344	0.6486323293861336	1.7655301773065573	0.2735818161823785	0.8601463030124581	1.7964652741079967	0.17005879432522547	0.5168611500088544	0.9271431080081465	0.12369284059057133	0.6775249351012868	1.3353999664166294	0.10447385721243342	0.772484252974367	1.7142125519349984	0.11867088824730586	0.6089079535029891	1.7507379927242552	0.06738914366036625	0.6637369091675156	1.758351099393432	0.11289286389459925	0.8333638569613712	1.7576108240025583	0.3149154579253459	0.43394763205651626	0.42406183339358994	0.36250296048284014	0.29942405680962364	0.20048317154827033	0.36182368071377313	0.2738660597681975	0.3429644565701819	0.44486983535966296	0.4533959418622361	0.49017967737882834	0.47600139400721087	0.4030354755617026	0.7030820665282465	0.4109849571021999	0.2585242309703203	0.6324153312808624	0.3504393966498842	0.17235659159921501	0.5847652698327792	0.34583211858321244	0.15110513666366818	0.5937507209926741	0.3605360877724556	0.1758001226562975	0.6360122376939252	0.14959001531494873	0.4006862464759962	0.49218829004296155	0.07260186128168128	0.48037644157228565	0.7191960301918905	0.08287664018594255	0.46970825789132387	0.9630069886511875	0.1358810977472098	0.42774282611389464	1.0462700962323823	0.13197108446030778	0.43422192789476	1.0848174382427518	0.06228652635261836	0.48218928050695226	1.0662502464486945
73	1.2372881355932204	0.3651479573240194	0.5787695416476796	0.9481204123853979	0.3196088179629357	0.6895140277593869	1.3437603942313343	0.2945075414951317	0.7681473914503952	1.7310138386172655	0.2811913802943754	0.6394805892540687	1.780198640188045	0.3254512005402372	0.6523156141495425	1.766708273905184	0.27056880244912723	0.8459514468377292	1.7920984107199096	0.1727915507381897	0.530073414762998	0.9293033563709648	0.11804010913358294	0.6923087702746977	1.3394734450087449	0.10450024135088258	0.7724093084362077	1.7141736484399794	0.12042931619480438	0.6224701558394761	1.7569871803072479	0.06739312382205173	0.665472285241701	1.7599327193965721	0.11059483093053056	0.8184288496468766	1.7517386259048513	0.31211583343541954	0.42201345147536157	0.42413038406304393	0.36254427190336425	0.2994367839304485	0.20055298764550616	0.3648117213652981	0.2844676088951281	0.34265802527917855	0.44801534348170924	0.46525173324313324	0.4939374188252882	0.47517676508663975	0.40373878658186885	0.7060906804491075	0.41046145232212294	0.25649233770899355	0.6281486475780804	0.35438761380289485	0.17978980966727	0.5738075176030778	0.33559171782977515	0.18134190459985272	0.5862464816685549	0.3599762353106666	0.17335768219855516	0.6260347924538123	0.1501586438956614	0.4002003460019024	0.4891452249244344	0.07239144507407894	0.4782480363487055	0.7149352176809716	0.08845452774525411	0.4567212222478311	0.9608561255347176	0.13800884088852458	0.43941939256411355	1.0486965421065146	0.13576861091094775	0.4357572594071675	1.0887992404455444	0.06253640524705342	0.48246904882277775	1.0663291464652669
74	1.2542372881355932	0.36453571406222823	0.5772541410205247	0.9399978974206236	0.3151358716638316	0.6764946080946609	1.344528825513488	0.2944805823203819	0.767994660782	1.7310921469099676	0.27753426575890516	0.6228942471119654	1.7699083038881203	0.32496566322084125	0.6503643275359822	1.7659708789321378	0.2707393873710535	0.8439226346275145	1.7954110593011108	0.17000055986892948	0.5170045339871733	0.9272144654275629	0.11683235195994791	0.6934947158754428	1.3436339361790242	0.10450324630354628	0.772360943498826	1.7141991788338462	0.11913824410164432	0.6113606485939729	1.7558376205142725	0.06722742805589253	0.6637377228047698	1.7583417571469129	0.11048265975296397	0.8177869089447364	1.751442225787102	0.3150132123843667	0.433548987533396	0.42750188008892753	0.36643381545015985	0.3021321791227639	0.2037685251697519	0.3689770043448027	0.2855389077130479	0.3427079504631455	0.45234262652751056	0.4667793732345103	0.4941676781143884	0.4750562159464904	0.4038124449593942	0.7060628773757837	0.4102223686052266	0.25460331450334184	0.624555100229252	0.35344987345959616	0.1768477093537425	0.5637952330402942	0.347501876018284	0.15837987682091462	0.5798612925557571	0.35722246110165007	0.1646340410630996	0.624500865248112	0.1550052363230326	0.3881841225718345	0.4890073181817771	0.07252346037452453	0.4803406851450095	0.7191174804101162	0.08856189068832972	0.4540777458362709	0.9602743153815352	0.1381863487787691	0.4392468592147215	1.0485662099482307	0.13656563217425968	0.43313640950364685	1.080421997286505	0.06860256360406346	0.49735910024466207	1.0695075136430243
75	1.271186440677966	0.3645760432714601	0.5766001216014551	0.9436950389364712	0.31948672996681854	0.6893860510403247	1.3437437933187444	0.29449550506287425	0.7680633441284019	1.7311669870745376	0.27746370691837224	0.6222356264005413	1.7695200016498402	0.3249387077191349	0.6499362332357982	1.7659306158797365	0.2708875325769517	0.8435816668538992	1.7955463032141104	0.16990918890882742	0.5170109555753203	0.9272227676317479	0.11685752444200516	0.6935155433764915	1.343666101106861	0.10451484808515425	0.7723071244336885	1.7141889112162725	0.11866878148487921	0.6087816026038959	1.7507205881955592	0.06727812432523847	0.6636467809808098	1.7582598719418425	0.1105503874029513	0.8175476199996364	1.75138190877766	0.3121654275280109	0.4214909173993315	0.4275589649975049	0.3665365329663534	0.3020626357608745	0.20389937887080659	0.3688135824988378	0.2858437025513693	0.3457852550140017	0.4482074113562372	0.4656098266777548	0.49402071166662315	0.4740982959931031	0.4063540068178753	0.7095331898039103	0.41005372851454636	0.25521227602141805	0.621088378008181	0.3542709350433394	0.17607712119773522	0.5592069845789691	0.3467793865575549	0.1611436428097472	0.5746841509050507	0.35711595199794116	0.1638488564188776	0.6088617138606027	0.15495155261298957	0.3881609252530176	0.4890921925078128	0.07183179243343375	0.4812595664468049	0.7226783473332068	0.0928019400969123	0.4587929120203869	0.9612050735854565	0.14327968393707322	0.44001884723098905	1.0456292621196017	0.13713428356943233	0.43570043147148346	1.0811015412160552	0.07445108024416842	0.48621767063496724	1.0709817615395272
76	1.2881355932203389	0.36464978733092396	0.5765310877317459	0.9435245847505885	0.3197584502927935	0.6884751296322343	1.3475585188816708	0.29448620490330524	0.7680140399150814	1.731199953608146	0.2810364401409397	0.6387726042971301	1.7798486379996572	0.3253765893778428	0.6518311470344837	1.7666159475314647	0.27102167088415546	0.8442768447355063	1.796659281251501	0.17275839511962324	0.5300409738716576	0.9290419548609467	0.1180083853472215	0.6923285216214898	1.339400301502742	0.1044912031398873	0.7723115427779742	1.7141629163283756	0.12074492784986172	0.6255022197483249	1.7619736090056175	0.06733830104040435	0.6645148184855991	1.7590930569475391	0.11065332245791007	0.818243442182842	1.7517343118300037	0.314942192210254	0.433526337528886	0.4274160759438177	0.3665469305949449	0.30224259626830874	0.20390109407636375	0.36879952441167413	0.2859976121903386	0.34595636815687664	0.4478822751599917	0.4660961849859863	0.4903983073703815	0.4717486472382545	0.39347476653638846	0.6980295657580645	0.4099807786488859	0.2557716795254397	0.6174148945666802	0.3545704005758098	0.17585182635603355	0.5561454965121488	0.3506759307371192	0.14849834847487012	0.5695995980241321	0.35714987812617416	0.16464346438408448	0.6028911927955699	0.1549760107204295	0.3881825115816642	0.4891285767333436	0.07266547033187143	0.4802612595805285	0.7190504385077805	0.10256954825981139	0.4475787543068777	0.9592595664964145	0.1434635606947747	0.4401775077686273	1.0455735851296901	0.13717304250824672	0.43654376824779756	1.0775989421595191	0.07213155847656372	0.472177621400937	1.0642133794656619
77	1.305084745762712	0.36459126346210124	0.577002827282836	0.9437422903292532	0.31977963310456586	0.6889259613717855	1.3476065603631957	0.29757694849277405	0.783812378673536	1.73724541389298	0.28358068185831825	0.6508915769346729	1.7851592169931396	0.3256561746135258	0.6526584593503721	1.7672038001699417	0.27116948949918546	0.843734748730163	1.7967033937525698	0.16728114173955294	0.5438959883525918	0.9312322777619102	0.11680767685323433	0.693695960521345	1.3438582311993144	0.10444853749273252	0.772264322236057	1.7141946727551491	0.12025102582941967	0.6229424745224192	1.7570769966069808	0.06748298522497549	0.6647929215040993	1.7594142700726663	0.11076568319249484	0.8180232175036144	1.751752752765668	0.3145649582958198	0.4342327888583881	0.4307881896051907	0.37011987746828207	0.3035819254929363	0.2039566937349075	0.3727249180339565	0.28692130746310635	0.3463036711381963	0.44817084050461636	0.4653001627110294	0.4941684195809831	0.47455044349346975	0.4051288023073016	0.7059329081831689	0.40998184852340264	0.25623712774561314	0.6137875864815201	0.3542065898502967	0.17502931066510125	0.549503588365753	0.35336379283257285	0.15556544079644802	0.5635958472020082	0.3603801976443919	0.17422293708823994	0.6028574813766876	0.1590375814240726	0.3892269041907854	0.4890557075460524	0.0726049214084734	0.47809828235014157	0.7149380492425481	0.10686578026937471	0.44950535556775567	0.9596630534261223	0.14823762241856073	0.42805190738577276	1.0428945688691384	0.13703025766580407	0.43444637873671765	1.073151839108412	0.07420571098344919	0.4842695488204763	1.0629724358779145
